M48
; DRILL file KiCad 10.0.6 date 2026-09-14T18:32:04
; FORMAT={-:-/ absolute / metric / decimal}
; #@! TF.CreationDate,2026-09-14T18:32:04-07:00
; #@! TF.GenerationSoftware,Kicad,Pcbnew,10.0.6
; #@! TF.FileFunction,Plated,1,2,PTH
FMAT,2
METRIC
; #@! TA.AperFunction,Plated,PTH,ComponentDrill
T1C0.830
; #@! TA.AperFunction,Plated,PTH,ComponentDrill
T2C0.981
; #@! TA.AperFunction,Plated,PTH,ComponentDrill
T3C1.016
%
G90
G05
T1
X125.34Y-50.71
X125.34Y-60.87
X130.42Y-50.71
X130.42Y-60.87
X135.5Y-50.71
X135.5Y-60.87
X140.58Y-50.71
X140.58Y-60.87
X156.412Y-50.607
X156.412Y-60.767
X167.412Y-50.607
X167.412Y-60.767
T2
X125.34Y-68.49
X127.88Y-68.49
X130.42Y-68.49
X132.96Y-68.49
X135.5Y-68.49
X138.04Y-68.49
X140.58Y-68.49
X143.12Y-68.49
T3
X132.862Y-83.057
X135.402Y-83.057
X137.942Y-83.057
X140.482Y-83.057
X141.752Y-131.317
X143.022Y-83.057
X144.292Y-131.317
X145.562Y-83.057
X146.832Y-131.317
X148.102Y-83.057
X149.372Y-131.317
X150.642Y-83.057
X151.652Y-70.936
X151.652Y-77.439
X151.912Y-131.317
X153.182Y-83.057
X154.452Y-131.317
X155.722Y-83.057
X156.173Y-70.936
X156.173Y-77.439
X156.992Y-131.317
X159.532Y-83.057
X159.532Y-131.317
X162.072Y-83.057
X162.652Y-70.936
X162.652Y-77.439
X164.612Y-83.057
X164.612Y-131.317
X167.152Y-83.057
X167.152Y-131.317
X167.173Y-70.936
X167.173Y-77.439
X169.692Y-83.057
X169.692Y-131.317
X172.232Y-83.057
X172.232Y-131.317
X174.772Y-83.057
X174.772Y-131.317
X177.312Y-83.057
X177.312Y-131.317
M30
